<svg width="3120" height="496" viewBox="0 0 3120 496" fill="none" xmlns="http://www.w3.org/2000/svg">
<g filter="url(#filter0_dd_1188_8420)">
<path fill-rule="evenodd" clip-rule="evenodd" d="M223.628 49.945C202.592 48.3734 175.539 59.9826 132.001 103.451C90.6694 144.715 80.1186 179.126 83.1563 207.511C86.3118 236.997 104.606 265.267 132.001 292.618C159.3 319.873 185.572 335.678 211.832 337.803C237.237 339.857 267.694 329.44 304.577 292.618C317.702 279.513 317.867 271.786 317.13 268.226C316.101 263.254 311.303 256.05 298.86 247.701C274.326 231.24 233.76 219.487 202.741 214.033C191.915 212.13 184.682 201.811 186.586 190.986C188.489 180.16 198.808 172.927 209.633 174.831C242.356 180.584 289.526 193.506 321.037 214.648C336.617 225.102 351.92 239.931 356.107 260.157C360.587 281.795 351.085 302.43 332.699 320.786C290.806 362.612 249.553 380.787 208.623 377.477C168.546 374.235 133.857 350.716 103.878 320.786C73.9947 290.95 48.1656 254.606 43.5788 211.747C38.8742 167.786 56.9624 122.123 103.878 75.2824C148.587 30.6458 186.856 7.28321 226.593 10.2519C265.244 13.1395 298.171 40.8095 332.699 75.2824C340.25 82.8204 349.141 91.1288 359.034 100.373C360.233 101.493 361.447 102.627 362.675 103.776C373.913 114.284 386.146 125.798 398.256 138.004C422.296 162.233 446.895 190.202 463.083 220.269C479.359 250.5 488.188 284.916 476.975 320.367C465.849 355.545 436.401 387.213 386.247 415.32C289.791 469.375 223.84 487.186 167.112 473.679C112.59 460.697 71.1585 419.318 22.7606 370.981C21.7901 370.012 20.8168 369.04 19.8405 368.065C12.0621 360.299 12.0519 347.698 19.8177 339.92C27.5835 332.141 40.1845 332.131 47.9629 339.897C100.229 392.079 133.928 424.861 176.332 434.958C217.624 444.79 272.017 433.708 366.788 380.597C412.248 355.12 432.129 330.165 439.025 308.364C445.833 286.836 441.376 263.917 428.036 239.138C414.608 214.197 393.261 189.482 370.001 166.038C358.461 154.408 346.705 143.337 335.49 132.849C334.266 131.705 333.046 130.565 331.832 129.431C322.039 120.282 312.628 111.488 304.577 103.451C269.049 67.9802 245.75 51.5978 223.628 49.945Z" fill="#333333"/>
<path d="M16.3078 371.604L19.8405 368.065L16.3078 371.604C17.2021 372.496 18.094 373.387 18.9838 374.276L19.2273 374.519L19.9011 375.192C67.7459 422.977 110.055 465.233 165.954 478.543C224.62 492.512 292.023 473.856 388.692 419.682C439.433 391.246 470.084 358.735 481.742 321.875C493.509 284.672 484.128 248.811 467.485 217.899C450.951 187.188 425.944 158.811 401.806 134.482C389.624 122.204 377.331 110.635 366.09 100.124L363.584 102.804L366.09 100.124C364.895 99.0057 363.713 97.9013 362.546 96.8105L362.448 96.7192C352.538 87.4591 343.712 79.2116 336.232 71.744C301.821 37.3887 267.688 8.30819 226.966 5.26584C184.878 2.12155 145.201 26.9615 100.346 71.744C52.7314 119.281 33.6929 166.358 38.6072 212.279C43.3738 256.818 70.1498 294.177 100.346 324.324C130.66 354.589 166.407 379.078 208.219 382.46C251.104 385.929 293.712 366.775 336.232 324.324C355.264 305.323 365.956 283.066 361.003 259.143C356.418 236.998 339.793 221.211 323.823 210.496C291.436 188.766 243.437 175.697 210.499 169.906C196.954 167.525 184.043 176.575 181.661 190.12C179.28 203.665 188.33 216.576 201.875 218.958C232.681 224.374 272.418 235.981 296.075 251.853C308.114 259.931 311.6 266.177 312.234 269.24C312.508 270.563 313.474 276.669 301.044 289.079C264.796 325.269 235.694 334.716 212.235 332.819C187.71 330.835 162.495 315.997 135.533 289.079C108.452 262.042 91.1037 234.785 88.1279 206.979C85.2991 180.547 94.9078 147.549 135.533 106.989C178.924 63.669 204.567 53.5349 223.255 54.9311C233.169 55.6718 243.697 59.7259 256.291 68.1693C268.918 76.6342 283.354 89.3275 301.044 106.989C309.153 115.085 318.614 123.924 328.375 133.043L328.418 133.084C329.633 134.219 330.852 135.357 332.074 136.501C343.288 146.986 354.983 158.002 366.451 169.56C389.614 192.906 410.552 217.211 423.634 241.508C436.602 265.596 440.514 287.073 434.257 306.856C427.893 326.979 409.211 351.091 364.344 376.235C269.784 429.228 216.843 439.464 177.49 430.094C157.235 425.271 138.863 414.997 118.943 399.284C98.9573 383.519 77.6796 362.5 51.4956 336.358C41.763 326.642 25.9961 326.654 16.2793 336.387C6.56244 346.12 6.57522 361.887 16.3078 371.604Z" stroke="#333333" stroke-width="10" stroke-linecap="round"/>
</g>
<mask id="path-3-outside-1_1188_8420" maskUnits="userSpaceOnUse" x="648" y="91" width="2462" height="303" fill="black">
<rect fill="white" x="648" y="91" width="2462" height="303"/>
<path d="M780.959 304.83V111.734H833.327V304.83C833.327 323.238 829.328 339.044 821.33 352.247C813.332 365.323 802.414 375.353 788.576 382.335C774.738 389.317 759.123 392.809 741.73 392.809C723.83 392.809 707.961 389.825 694.123 383.858C680.285 377.765 669.431 368.497 661.56 356.056C653.815 343.614 649.943 327.809 649.943 308.639H702.502C702.502 319.049 704.089 327.428 707.263 333.775C710.437 340.123 714.943 344.693 720.783 347.486C726.75 350.279 733.732 351.676 741.73 351.676C749.475 351.676 756.267 349.898 762.106 346.344C768.073 342.662 772.707 337.33 776.008 330.348C779.309 323.365 780.959 314.859 780.959 304.83ZM872.556 288.072V284.073C872.556 268.966 874.714 255.064 879.03 242.369C883.347 229.547 889.631 218.438 897.883 209.044C906.135 199.649 916.228 192.35 928.161 187.145C940.095 181.812 953.679 179.146 968.913 179.146C984.401 179.146 998.112 181.812 1010.05 187.145C1022.11 192.35 1032.26 199.649 1040.51 209.044C1048.77 218.438 1055.05 229.547 1059.37 242.369C1063.68 255.064 1065.84 268.966 1065.84 284.073V288.072C1065.84 303.053 1063.68 316.954 1059.37 329.776C1055.05 342.472 1048.77 353.58 1040.51 363.102C1032.26 372.496 1022.17 379.796 1010.24 385.001C998.303 390.206 984.655 392.809 969.294 392.809C954.06 392.809 940.412 390.206 928.352 385.001C916.291 379.796 906.135 372.496 897.883 363.102C889.631 353.58 883.347 342.472 879.03 329.776C874.714 316.954 872.556 303.053 872.556 288.072ZM922.829 284.073V288.072C922.829 297.086 923.718 305.528 925.495 313.399C927.272 321.271 930.002 328.189 933.684 334.156C937.365 340.123 942.126 344.82 947.966 348.248C953.933 351.549 961.042 353.199 969.294 353.199C977.419 353.199 984.401 351.549 990.241 348.248C996.081 344.82 1000.84 340.123 1004.52 334.156C1008.33 328.189 1011.12 321.271 1012.9 313.399C1014.68 305.528 1015.57 297.086 1015.57 288.072V284.073C1015.57 275.187 1014.68 266.871 1012.9 259.127C1011.12 251.256 1008.33 244.337 1004.52 238.37C1000.84 232.276 996.018 227.516 990.051 224.088C984.211 220.533 977.165 218.756 968.913 218.756C960.788 218.756 953.806 220.533 947.966 224.088C942.126 227.516 937.365 232.276 933.684 238.37C930.002 244.337 927.272 251.256 925.495 259.127C923.718 266.871 922.829 275.187 922.829 284.073ZM1225.04 340.06V182.955H1275.7V389H1228.09L1225.04 340.06ZM1231.52 297.403L1247.13 297.022C1247.13 310.86 1245.61 323.619 1242.56 335.299C1239.51 346.979 1234.75 357.135 1228.28 365.768C1221.93 374.273 1213.87 380.938 1204.09 385.763C1194.32 390.46 1182.77 392.809 1169.44 392.809C1159.28 392.809 1150.01 391.412 1141.63 388.619C1133.25 385.699 1126.02 381.192 1119.92 375.099C1113.96 368.878 1109.32 360.943 1106.02 351.295C1102.72 341.52 1101.07 329.776 1101.07 316.065V182.955H1151.34V316.446C1151.34 323.302 1152.11 329.015 1153.63 333.585C1155.28 338.155 1157.5 341.9 1160.29 344.82C1163.21 347.613 1166.58 349.645 1170.39 350.914C1174.32 352.057 1178.51 352.628 1182.96 352.628C1195.14 352.628 1204.73 350.216 1211.71 345.392C1218.82 340.44 1223.9 333.839 1226.95 325.587C1229.99 317.208 1231.52 307.813 1231.52 297.403ZM1370.53 225.04V389H1320.26V182.955H1367.86L1370.53 225.04ZM1433.18 181.622L1432.42 228.468C1429.63 227.96 1426.45 227.579 1422.9 227.325C1419.47 227.071 1416.23 226.944 1413.19 226.944C1405.44 226.944 1398.65 228.023 1392.81 230.182C1386.97 232.213 1382.08 235.196 1378.15 239.132C1374.34 243.067 1371.42 247.892 1369.39 253.604C1367.36 259.19 1366.21 265.538 1365.96 272.647L1355.1 271.314C1355.1 258.238 1356.44 246.114 1359.1 234.942C1361.77 223.771 1365.64 213.995 1370.72 205.616C1375.8 197.237 1382.15 190.763 1389.76 186.192C1397.51 181.495 1406.39 179.146 1416.42 179.146C1419.22 179.146 1422.2 179.4 1425.37 179.908C1428.67 180.289 1431.28 180.86 1433.18 181.622ZM1510.11 226.944V389H1459.84V182.955H1507.07L1510.11 226.944ZM1502.12 278.551H1487.26C1487.39 263.57 1489.42 249.986 1493.36 237.799C1497.29 225.611 1502.81 215.138 1509.92 206.378C1517.16 197.618 1525.73 190.89 1535.63 186.192C1545.53 181.495 1556.58 179.146 1568.77 179.146C1578.67 179.146 1587.62 180.543 1595.62 183.336C1603.62 186.129 1610.47 190.572 1616.18 196.666C1622.02 202.76 1626.47 210.758 1629.51 220.66C1632.69 230.436 1634.27 242.496 1634.27 256.842V389H1583.62V256.461C1583.62 247.066 1582.22 239.64 1579.43 234.181C1576.76 228.722 1572.83 224.85 1567.62 222.564C1562.55 220.279 1556.26 219.137 1548.77 219.137C1541.03 219.137 1534.24 220.724 1528.4 223.897C1522.68 226.944 1517.86 231.197 1513.92 236.656C1510.11 242.115 1507.19 248.399 1505.16 255.509C1503.13 262.618 1502.12 270.299 1502.12 278.551ZM1792.14 345.201V250.177C1792.14 243.194 1790.93 237.164 1788.52 232.086C1786.11 227.008 1782.43 223.072 1777.48 220.279C1772.53 217.486 1766.24 216.09 1758.62 216.09C1751.9 216.09 1745.99 217.232 1740.92 219.518C1735.96 221.803 1732.16 225.04 1729.49 229.229C1726.82 233.292 1725.49 237.989 1725.49 243.321H1675.03C1675.03 234.815 1677.06 226.754 1681.12 219.137C1685.18 211.393 1690.96 204.537 1698.45 198.57C1706.07 192.477 1715.14 187.716 1725.68 184.288C1736.34 180.86 1748.28 179.146 1761.48 179.146C1777.1 179.146 1791 181.812 1803.19 187.145C1815.5 192.35 1825.15 200.221 1832.13 210.758C1839.24 221.295 1842.79 234.562 1842.79 250.558V340.44C1842.79 350.724 1843.43 359.547 1844.7 366.91C1846.1 374.146 1848.13 380.431 1850.79 385.763V389H1799.57C1797.16 383.795 1795.31 377.193 1794.04 369.195C1792.78 361.07 1792.14 353.072 1792.14 345.201ZM1799.19 263.507L1799.57 293.404H1767.77C1759.89 293.404 1752.98 294.229 1747.01 295.88C1741.04 297.403 1736.15 299.688 1732.35 302.735C1728.54 305.655 1725.68 309.21 1723.78 313.399C1721.87 317.462 1720.92 322.096 1720.92 327.301C1720.92 332.379 1722.06 336.949 1724.35 341.012C1726.76 345.074 1730.19 348.312 1734.63 350.724C1739.2 353.009 1744.53 354.151 1750.63 354.151C1759.51 354.151 1767.26 352.374 1773.86 348.819C1780.46 345.138 1785.6 340.694 1789.28 335.489C1792.97 330.284 1794.93 325.333 1795.19 320.636L1809.66 342.345C1807.88 347.55 1805.22 353.072 1801.66 358.912C1798.11 364.752 1793.54 370.211 1787.95 375.289C1782.37 380.367 1775.64 384.557 1767.77 387.857C1759.89 391.158 1750.75 392.809 1740.34 392.809C1727.01 392.809 1715.08 390.143 1704.54 384.811C1694.01 379.479 1685.69 372.179 1679.6 362.911C1673.5 353.644 1670.46 343.106 1670.46 331.3C1670.46 320.382 1672.49 310.733 1676.55 302.354C1680.61 293.976 1686.64 286.93 1694.64 281.217C1702.64 275.377 1712.54 270.997 1724.35 268.077C1736.28 265.03 1749.93 263.507 1765.29 263.507H1799.19ZM1941.44 96.5V389H1890.97V96.5H1941.44ZM2314.87 243.321V257.604C2314.87 278.551 2312.08 297.403 2306.49 314.161C2300.91 330.792 2292.97 344.947 2282.69 356.627C2272.4 368.307 2260.15 377.257 2245.93 383.478C2231.72 389.698 2215.91 392.809 2198.52 392.809C2181.38 392.809 2165.64 389.698 2151.29 383.478C2137.07 377.257 2124.76 368.307 2114.35 356.627C2103.94 344.947 2095.88 330.792 2090.16 314.161C2084.45 297.403 2081.59 278.551 2081.59 257.604V243.321C2081.59 222.247 2084.45 203.395 2090.16 186.764C2095.88 170.133 2103.87 155.978 2114.16 144.298C2124.44 132.491 2136.69 123.478 2150.91 117.257C2165.26 111.036 2181 107.926 2198.14 107.926C2215.53 107.926 2231.33 111.036 2245.55 117.257C2259.77 123.478 2272.02 132.491 2282.31 144.298C2292.72 155.978 2300.71 170.133 2306.3 186.764C2312.01 203.395 2314.87 222.247 2314.87 243.321ZM2261.93 257.604V242.94C2261.93 227.833 2260.53 214.566 2257.74 203.141C2254.95 191.588 2250.82 181.876 2245.36 174.005C2239.9 166.134 2233.18 160.23 2225.18 156.295C2217.18 152.232 2208.17 150.201 2198.14 150.201C2187.98 150.201 2178.97 152.232 2171.1 156.295C2163.35 160.23 2156.75 166.134 2151.29 174.005C2145.83 181.876 2141.64 191.588 2138.72 203.141C2135.93 214.566 2134.53 227.833 2134.53 242.94V257.604C2134.53 272.584 2135.93 285.851 2138.72 297.403C2141.64 308.956 2145.83 318.731 2151.29 326.729C2156.88 334.601 2163.61 340.567 2171.48 344.63C2179.35 348.692 2188.36 350.724 2198.52 350.724C2208.67 350.724 2217.69 348.692 2225.56 344.63C2233.43 340.567 2240.03 334.601 2245.36 326.729C2250.82 318.731 2254.95 308.956 2257.74 297.403C2260.53 285.851 2261.93 272.584 2261.93 257.604ZM2421.32 389H2370.67V163.912C2370.67 148.424 2373.65 135.411 2379.62 124.874C2385.58 114.21 2394.09 106.148 2405.13 100.689C2416.18 95.2305 2429.19 92.501 2444.17 92.501C2449.12 92.501 2453.82 92.8184 2458.26 93.4531C2462.83 94.0879 2467.34 94.9766 2471.78 96.1191L2470.83 134.396C2468.42 133.761 2465.75 133.316 2462.83 133.062C2460.04 132.809 2456.93 132.682 2453.5 132.682C2446.65 132.682 2440.81 133.888 2435.98 136.3C2431.16 138.712 2427.48 142.267 2424.94 146.964C2422.53 151.534 2421.32 157.184 2421.32 163.912V389ZM2463.02 182.955V219.137H2339.63V182.955H2463.02ZM2617.84 111.734H2663.17L2738.96 320.445L2814.56 111.734H2860.07L2757.05 389H2720.68L2617.84 111.734ZM2594.99 111.734H2639.36L2647.36 303.497V389H2594.99V111.734ZM2838.36 111.734H2882.92V389H2830.55V303.497L2838.36 111.734ZM3024.98 392.809C3009.37 392.809 2995.34 390.27 2982.9 385.191C2970.46 380.113 2959.86 373.067 2951.1 364.054C2942.46 354.913 2935.8 344.312 2931.1 332.252C2926.53 320.064 2924.25 306.988 2924.25 293.023V285.406C2924.25 269.537 2926.53 255.128 2931.1 242.179C2935.67 229.103 2942.15 217.867 2950.52 208.473C2958.9 199.078 2968.93 191.842 2980.61 186.764C2992.29 181.686 3005.18 179.146 3019.27 179.146C3033.87 179.146 3046.75 181.622 3057.93 186.573C3069.1 191.397 3078.43 198.253 3085.92 207.14C3093.41 216.026 3099.06 226.69 3102.87 239.132C3106.68 251.446 3108.58 265.094 3108.58 280.074V301.212H2947.1V266.554H3059.07V262.745C3058.82 254.747 3057.29 247.447 3054.5 240.846C3051.71 234.117 3047.39 228.785 3041.55 224.85C3035.71 220.787 3028.16 218.756 3018.89 218.756C3011.4 218.756 3004.86 220.406 2999.27 223.707C2993.82 226.881 2989.25 231.451 2985.56 237.418C2982.01 243.258 2979.34 250.24 2977.57 258.365C2975.79 266.49 2974.9 275.504 2974.9 285.406V293.023C2974.9 301.656 2976.04 309.654 2978.33 317.018C2980.74 324.381 2984.23 330.792 2988.8 336.251C2993.5 341.583 2999.08 345.772 3005.56 348.819C3012.16 351.739 3019.65 353.199 3028.03 353.199C3038.57 353.199 3048.09 351.168 3056.59 347.105C3065.23 342.916 3072.72 336.759 3079.06 328.634L3104.39 354.913C3100.08 361.261 3094.24 367.354 3086.87 373.194C3079.64 379.034 3070.88 383.795 3060.59 387.477C3050.31 391.031 3038.44 392.809 3024.98 392.809Z"/>
</mask>
<path d="M780.959 304.83V111.734H833.327V304.83C833.327 323.238 829.328 339.044 821.33 352.247C813.332 365.323 802.414 375.353 788.576 382.335C774.738 389.317 759.123 392.809 741.73 392.809C723.83 392.809 707.961 389.825 694.123 383.858C680.285 377.765 669.431 368.497 661.56 356.056C653.815 343.614 649.943 327.809 649.943 308.639H702.502C702.502 319.049 704.089 327.428 707.263 333.775C710.437 340.123 714.943 344.693 720.783 347.486C726.75 350.279 733.732 351.676 741.73 351.676C749.475 351.676 756.267 349.898 762.106 346.344C768.073 342.662 772.707 337.33 776.008 330.348C779.309 323.365 780.959 314.859 780.959 304.83ZM872.556 288.072V284.073C872.556 268.966 874.714 255.064 879.03 242.369C883.347 229.547 889.631 218.438 897.883 209.044C906.135 199.649 916.228 192.35 928.161 187.145C940.095 181.812 953.679 179.146 968.913 179.146C984.401 179.146 998.112 181.812 1010.05 187.145C1022.11 192.35 1032.26 199.649 1040.51 209.044C1048.77 218.438 1055.05 229.547 1059.37 242.369C1063.68 255.064 1065.84 268.966 1065.84 284.073V288.072C1065.84 303.053 1063.68 316.954 1059.37 329.776C1055.05 342.472 1048.77 353.58 1040.51 363.102C1032.26 372.496 1022.17 379.796 1010.24 385.001C998.303 390.206 984.655 392.809 969.294 392.809C954.06 392.809 940.412 390.206 928.352 385.001C916.291 379.796 906.135 372.496 897.883 363.102C889.631 353.58 883.347 342.472 879.03 329.776C874.714 316.954 872.556 303.053 872.556 288.072ZM922.829 284.073V288.072C922.829 297.086 923.718 305.528 925.495 313.399C927.272 321.271 930.002 328.189 933.684 334.156C937.365 340.123 942.126 344.82 947.966 348.248C953.933 351.549 961.042 353.199 969.294 353.199C977.419 353.199 984.401 351.549 990.241 348.248C996.081 344.82 1000.84 340.123 1004.52 334.156C1008.33 328.189 1011.12 321.271 1012.9 313.399C1014.68 305.528 1015.57 297.086 1015.57 288.072V284.073C1015.57 275.187 1014.68 266.871 1012.9 259.127C1011.12 251.256 1008.33 244.337 1004.52 238.37C1000.84 232.276 996.018 227.516 990.051 224.088C984.211 220.533 977.165 218.756 968.913 218.756C960.788 218.756 953.806 220.533 947.966 224.088C942.126 227.516 937.365 232.276 933.684 238.37C930.002 244.337 927.272 251.256 925.495 259.127C923.718 266.871 922.829 275.187 922.829 284.073ZM1225.04 340.06V182.955H1275.7V389H1228.09L1225.04 340.06ZM1231.52 297.403L1247.13 297.022C1247.13 310.86 1245.61 323.619 1242.56 335.299C1239.51 346.979 1234.75 357.135 1228.28 365.768C1221.93 374.273 1213.87 380.938 1204.09 385.763C1194.32 390.46 1182.77 392.809 1169.44 392.809C1159.28 392.809 1150.01 391.412 1141.63 388.619C1133.25 385.699 1126.02 381.192 1119.92 375.099C1113.96 368.878 1109.32 360.943 1106.02 351.295C1102.72 341.52 1101.07 329.776 1101.07 316.065V182.955H1151.34V316.446C1151.34 323.302 1152.11 329.015 1153.63 333.585C1155.28 338.155 1157.5 341.9 1160.29 344.82C1163.21 347.613 1166.58 349.645 1170.39 350.914C1174.32 352.057 1178.51 352.628 1182.96 352.628C1195.14 352.628 1204.73 350.216 1211.71 345.392C1218.82 340.44 1223.9 333.839 1226.95 325.587C1229.99 317.208 1231.52 307.813 1231.52 297.403ZM1370.53 225.04V389H1320.26V182.955H1367.86L1370.53 225.04ZM1433.18 181.622L1432.42 228.468C1429.63 227.96 1426.45 227.579 1422.9 227.325C1419.47 227.071 1416.23 226.944 1413.19 226.944C1405.44 226.944 1398.65 228.023 1392.81 230.182C1386.97 232.213 1382.08 235.196 1378.15 239.132C1374.34 243.067 1371.42 247.892 1369.39 253.604C1367.36 259.19 1366.21 265.538 1365.96 272.647L1355.1 271.314C1355.1 258.238 1356.44 246.114 1359.1 234.942C1361.77 223.771 1365.64 213.995 1370.72 205.616C1375.8 197.237 1382.15 190.763 1389.76 186.192C1397.51 181.495 1406.39 179.146 1416.42 179.146C1419.22 179.146 1422.2 179.4 1425.37 179.908C1428.67 180.289 1431.28 180.86 1433.18 181.622ZM1510.11 226.944V389H1459.84V182.955H1507.07L1510.11 226.944ZM1502.12 278.551H1487.26C1487.39 263.57 1489.42 249.986 1493.36 237.799C1497.29 225.611 1502.81 215.138 1509.92 206.378C1517.16 197.618 1525.73 190.89 1535.63 186.192C1545.53 181.495 1556.58 179.146 1568.77 179.146C1578.67 179.146 1587.62 180.543 1595.62 183.336C1603.62 186.129 1610.47 190.572 1616.18 196.666C1622.02 202.76 1626.47 210.758 1629.51 220.66C1632.69 230.436 1634.27 242.496 1634.27 256.842V389H1583.62V256.461C1583.62 247.066 1582.22 239.64 1579.43 234.181C1576.76 228.722 1572.83 224.85 1567.62 222.564C1562.55 220.279 1556.26 219.137 1548.77 219.137C1541.03 219.137 1534.24 220.724 1528.4 223.897C1522.68 226.944 1517.86 231.197 1513.92 236.656C1510.11 242.115 1507.19 248.399 1505.16 255.509C1503.13 262.618 1502.12 270.299 1502.12 278.551ZM1792.14 345.201V250.177C1792.14 243.194 1790.93 237.164 1788.52 232.086C1786.11 227.008 1782.43 223.072 1777.48 220.279C1772.53 217.486 1766.24 216.09 1758.62 216.09C1751.9 216.09 1745.99 217.232 1740.92 219.518C1735.96 221.803 1732.16 225.04 1729.49 229.229C1726.82 233.292 1725.49 237.989 1725.49 243.321H1675.03C1675.03 234.815 1677.06 226.754 1681.12 219.137C1685.18 211.393 1690.96 204.537 1698.45 198.57C1706.07 192.477 1715.14 187.716 1725.68 184.288C1736.34 180.86 1748.28 179.146 1761.48 179.146C1777.1 179.146 1791 181.812 1803.19 187.145C1815.5 192.35 1825.15 200.221 1832.13 210.758C1839.24 221.295 1842.79 234.562 1842.79 250.558V340.44C1842.79 350.724 1843.43 359.547 1844.7 366.91C1846.1 374.146 1848.13 380.431 1850.79 385.763V389H1799.57C1797.16 383.795 1795.31 377.193 1794.04 369.195C1792.78 361.07 1792.14 353.072 1792.14 345.201ZM1799.19 263.507L1799.57 293.404H1767.77C1759.89 293.404 1752.98 294.229 1747.01 295.88C1741.04 297.403 1736.15 299.688 1732.35 302.735C1728.54 305.655 1725.68 309.21 1723.78 313.399C1721.87 317.462 1720.92 322.096 1720.92 327.301C1720.92 332.379 1722.06 336.949 1724.35 341.012C1726.76 345.074 1730.19 348.312 1734.63 350.724C1739.2 353.009 1744.53 354.151 1750.63 354.151C1759.51 354.151 1767.26 352.374 1773.86 348.819C1780.46 345.138 1785.6 340.694 1789.28 335.489C1792.97 330.284 1794.93 325.333 1795.19 320.636L1809.66 342.345C1807.88 347.55 1805.22 353.072 1801.66 358.912C1798.11 364.752 1793.54 370.211 1787.95 375.289C1782.37 380.367 1775.64 384.557 1767.77 387.857C1759.89 391.158 1750.75 392.809 1740.34 392.809C1727.01 392.809 1715.08 390.143 1704.54 384.811C1694.01 379.479 1685.69 372.179 1679.6 362.911C1673.5 353.644 1670.46 343.106 1670.46 331.3C1670.46 320.382 1672.49 310.733 1676.55 302.354C1680.61 293.976 1686.64 286.93 1694.64 281.217C1702.64 275.377 1712.54 270.997 1724.35 268.077C1736.28 265.03 1749.93 263.507 1765.29 263.507H1799.19ZM1941.44 96.5V389H1890.97V96.5H1941.44ZM2314.87 243.321V257.604C2314.87 278.551 2312.08 297.403 2306.49 314.161C2300.91 330.792 2292.97 344.947 2282.69 356.627C2272.4 368.307 2260.15 377.257 2245.93 383.478C2231.72 389.698 2215.91 392.809 2198.52 392.809C2181.38 392.809 2165.64 389.698 2151.29 383.478C2137.07 377.257 2124.76 368.307 2114.35 356.627C2103.94 344.947 2095.88 330.792 2090.16 314.161C2084.45 297.403 2081.59 278.551 2081.59 257.604V243.321C2081.59 222.247 2084.45 203.395 2090.16 186.764C2095.88 170.133 2103.87 155.978 2114.16 144.298C2124.44 132.491 2136.69 123.478 2150.91 117.257C2165.26 111.036 2181 107.926 2198.14 107.926C2215.53 107.926 2231.33 111.036 2245.55 117.257C2259.77 123.478 2272.02 132.491 2282.31 144.298C2292.72 155.978 2300.71 170.133 2306.3 186.764C2312.01 203.395 2314.87 222.247 2314.87 243.321ZM2261.93 257.604V242.94C2261.93 227.833 2260.53 214.566 2257.74 203.141C2254.95 191.588 2250.82 181.876 2245.36 174.005C2239.9 166.134 2233.18 160.23 2225.18 156.295C2217.18 152.232 2208.17 150.201 2198.14 150.201C2187.98 150.201 2178.97 152.232 2171.1 156.295C2163.35 160.23 2156.75 166.134 2151.29 174.005C2145.83 181.876 2141.64 191.588 2138.72 203.141C2135.93 214.566 2134.53 227.833 2134.53 242.94V257.604C2134.53 272.584 2135.93 285.851 2138.72 297.403C2141.64 308.956 2145.83 318.731 2151.29 326.729C2156.88 334.601 2163.61 340.567 2171.48 344.63C2179.35 348.692 2188.36 350.724 2198.52 350.724C2208.67 350.724 2217.69 348.692 2225.56 344.63C2233.43 340.567 2240.03 334.601 2245.36 326.729C2250.82 318.731 2254.95 308.956 2257.74 297.403C2260.53 285.851 2261.93 272.584 2261.93 257.604ZM2421.32 389H2370.67V163.912C2370.67 148.424 2373.65 135.411 2379.62 124.874C2385.58 114.21 2394.09 106.148 2405.13 100.689C2416.18 95.2305 2429.19 92.501 2444.17 92.501C2449.12 92.501 2453.82 92.8184 2458.26 93.4531C2462.83 94.0879 2467.34 94.9766 2471.78 96.1191L2470.83 134.396C2468.42 133.761 2465.75 133.316 2462.83 133.062C2460.04 132.809 2456.93 132.682 2453.5 132.682C2446.65 132.682 2440.81 133.888 2435.98 136.3C2431.16 138.712 2427.48 142.267 2424.94 146.964C2422.53 151.534 2421.32 157.184 2421.32 163.912V389ZM2463.02 182.955V219.137H2339.63V182.955H2463.02ZM2617.84 111.734H2663.17L2738.96 320.445L2814.56 111.734H2860.07L2757.05 389H2720.68L2617.84 111.734ZM2594.99 111.734H2639.36L2647.36 303.497V389H2594.99V111.734ZM2838.36 111.734H2882.92V389H2830.55V303.497L2838.36 111.734ZM3024.98 392.809C3009.37 392.809 2995.34 390.27 2982.9 385.191C2970.46 380.113 2959.86 373.067 2951.1 364.054C2942.46 354.913 2935.8 344.312 2931.1 332.252C2926.53 320.064 2924.25 306.988 2924.25 293.023V285.406C2924.25 269.537 2926.53 255.128 2931.1 242.179C2935.67 229.103 2942.15 217.867 2950.52 208.473C2958.9 199.078 2968.93 191.842 2980.61 186.764C2992.29 181.686 3005.18 179.146 3019.27 179.146C3033.87 179.146 3046.75 181.622 3057.93 186.573C3069.1 191.397 3078.43 198.253 3085.92 207.14C3093.41 216.026 3099.06 226.69 3102.87 239.132C3106.68 251.446 3108.58 265.094 3108.58 280.074V301.212H2947.1V266.554H3059.07V262.745C3058.82 254.747 3057.29 247.447 3054.5 240.846C3051.71 234.117 3047.39 228.785 3041.55 224.85C3035.71 220.787 3028.16 218.756 3018.89 218.756C3011.4 218.756 3004.86 220.406 2999.27 223.707C2993.82 226.881 2989.25 231.451 2985.56 237.418C2982.01 243.258 2979.34 250.24 2977.57 258.365C2975.79 266.49 2974.9 275.504 2974.9 285.406V293.023C2974.9 301.656 2976.04 309.654 2978.33 317.018C2980.74 324.381 2984.23 330.792 2988.8 336.251C2993.5 341.583 2999.08 345.772 3005.56 348.819C3012.16 351.739 3019.65 353.199 3028.03 353.199C3038.57 353.199 3048.09 351.168 3056.59 347.105C3065.23 342.916 3072.72 336.759 3079.06 328.634L3104.39 354.913C3100.08 361.261 3094.24 367.354 3086.87 373.194C3079.64 379.034 3070.88 383.795 3060.59 387.477C3050.31 391.031 3038.44 392.809 3024.98 392.809Z" fill="#333333"/>
<path d="M780.959 111.734V110.734H779.959V111.734H780.959ZM833.327 111.734H834.327V110.734H833.327V111.734ZM821.33 352.247L822.183 352.769L822.185 352.765L821.33 352.247ZM694.123 383.858L693.72 384.774L693.727 384.777L694.123 383.858ZM661.56 356.056L660.711 356.584L660.714 356.59L661.56 356.056ZM649.943 308.639V307.639H648.943V308.639H649.943ZM702.502 308.639H703.502V307.639H702.502V308.639ZM720.783 347.486L720.352 348.388L720.359 348.392L720.783 347.486ZM762.106 346.344L762.626 347.198L762.632 347.195L762.106 346.344ZM781.959 304.83V111.734H779.959V304.83H781.959ZM780.959 112.734H833.327V110.734H780.959V112.734ZM832.327 111.734V304.83H834.327V111.734H832.327ZM832.327 304.83C832.327 323.091 828.361 338.71 820.475 351.729L822.185 352.765C830.295 339.378 834.327 323.386 834.327 304.83H832.327ZM820.477 351.725C812.577 364.641 801.799 374.543 788.126 381.442L789.027 383.228C803.029 376.163 814.087 366.006 822.183 352.769L820.477 351.725ZM788.126 381.442C774.444 388.346 758.986 391.809 741.73 391.809V393.809C759.26 393.809 775.033 390.289 789.027 383.228L788.126 381.442ZM741.73 391.809C723.941 391.809 708.211 388.844 694.519 382.94L693.727 384.777C707.711 390.807 723.719 393.809 741.73 393.809V391.809ZM694.526 382.943C680.865 376.927 670.166 367.79 662.405 355.521L660.714 356.59C668.695 369.204 679.705 378.602 693.72 384.774L694.526 382.943ZM662.409 355.527C654.789 343.286 650.943 327.678 650.943 308.639H648.943C648.943 327.939 652.842 343.942 660.711 356.584L662.409 355.527ZM649.943 309.639H702.502V307.639H649.943V309.639ZM701.502 308.639C701.502 319.137 703.1 327.687 706.368 334.223L708.157 333.328C705.077 327.169 703.502 318.961 703.502 308.639H701.502ZM706.368 334.223C709.631 340.749 714.292 345.49 720.352 348.388L721.215 346.584C715.595 343.897 711.242 339.497 708.157 333.328L706.368 334.223ZM720.359 348.392C726.484 351.259 733.617 352.676 741.73 352.676V350.676C733.848 350.676 727.016 349.3 721.207 346.581L720.359 348.392ZM741.73 352.676C749.633 352.676 756.61 350.86 762.626 347.198L761.586 345.49C755.923 348.937 749.316 350.676 741.73 350.676V352.676ZM762.632 347.195C768.78 343.401 773.537 337.914 776.912 330.775L775.104 329.92C771.877 336.746 767.367 341.923 761.581 345.493L762.632 347.195ZM776.912 330.775C780.292 323.625 781.959 314.965 781.959 304.83H779.959C779.959 314.754 778.325 323.105 775.104 329.92L776.912 330.775ZM879.03 242.369L879.977 242.691L879.978 242.688L879.03 242.369ZM928.161 187.145L928.561 188.061L928.569 188.058L928.161 187.145ZM1010.05 187.145L1009.64 188.058L1009.65 188.063L1010.05 187.145ZM1059.37 242.369L1058.42 242.688L1058.42 242.691L1059.37 242.369ZM1059.37 329.776L1060.31 330.098L1060.31 330.095L1059.37 329.776ZM1040.51 363.102L1041.27 363.762L1041.27 363.756L1040.51 363.102ZM1010.24 385.001L1009.84 384.084L1010.24 385.001ZM897.883 363.102L897.127 363.757L897.131 363.762L897.883 363.102ZM879.03 329.776L878.083 330.095L878.084 330.098L879.03 329.776ZM947.966 348.248L947.46 349.11L947.471 349.117L947.482 349.123L947.966 348.248ZM990.241 348.248L990.733 349.119L990.74 349.115L990.747 349.11L990.241 348.248ZM1004.52 334.156L1003.68 333.618L1003.68 333.625L1003.67 333.631L1004.52 334.156ZM1012.9 259.127L1011.93 259.347L1011.93 259.351L1012.9 259.127ZM1004.52 238.37L1003.67 238.887L1003.67 238.898L1003.68 238.908L1004.52 238.37ZM990.051 224.088L989.531 224.942L989.542 224.949L989.553 224.955L990.051 224.088ZM947.966 224.088L948.472 224.95L948.479 224.946L948.486 224.942L947.966 224.088ZM933.684 238.37L934.535 238.895L934.54 238.887L933.684 238.37ZM925.495 259.127L926.47 259.351L926.471 259.347L925.495 259.127ZM873.556 288.072V284.073H871.556V288.072H873.556ZM873.556 284.073C873.556 269.062 875.7 255.27 879.977 242.691L878.084 242.047C873.728 254.858 871.556 268.87 871.556 284.073H873.556ZM879.978 242.688C884.256 229.981 890.477 218.991 898.634 209.704L897.131 208.384C888.785 217.886 882.438 229.113 878.083 242.05L879.978 242.688ZM898.634 209.704C906.785 200.424 916.756 193.21 928.561 188.061L927.761 186.228C915.699 191.489 905.484 198.875 897.131 208.384L898.634 209.704ZM928.569 188.058C940.355 182.792 953.796 180.146 968.913 180.146V178.146C953.561 178.146 939.835 180.833 927.753 186.232L928.569 188.058ZM968.913 180.146C984.286 180.146 997.854 182.792 1009.64 188.058L1010.45 186.232C998.37 180.833 984.516 178.146 968.913 178.146V180.146ZM1009.65 188.063C1021.58 193.212 1031.61 200.426 1039.76 209.704L1041.27 208.384C1032.91 198.873 1022.63 191.487 1010.44 186.226L1009.65 188.063ZM1039.76 209.704C1047.92 218.991 1054.14 229.981 1058.42 242.688L1060.31 242.05C1055.96 229.113 1049.61 217.886 1041.27 208.384L1039.76 209.704ZM1058.42 242.691C1062.7 255.27 1064.84 269.062 1064.84 284.073H1066.84C1066.84 268.87 1064.67 254.858 1060.31 242.047L1058.42 242.691ZM1064.84 284.073V288.072H1066.84V284.073H1064.84ZM1064.84 288.072C1064.84 302.956 1062.7 316.748 1058.42 329.457L1060.31 330.095C1064.67 317.16 1066.84 303.15 1066.84 288.072H1064.84ZM1058.42 329.454C1054.14 342.035 1047.92 353.029 1039.76 362.447L1041.27 363.756C1049.61 354.131 1055.96 342.908 1060.31 330.098L1058.42 329.454ZM1039.76 362.442C1031.61 371.721 1021.64 378.936 1009.84 384.084L1010.64 385.918C1022.7 380.656 1032.91 373.271 1041.27 363.762L1039.76 362.442ZM1009.84 384.084C998.05 389.225 984.542 391.809 969.294 391.809V393.809C984.768 393.809 998.556 391.187 1010.64 385.918L1009.84 384.084ZM969.294 391.809C954.174 391.809 940.665 389.226 928.748 384.083L927.955 385.919C940.159 391.186 953.945 393.809 969.294 393.809V391.809ZM928.748 384.083C916.816 378.933 906.783 371.719 898.634 362.442L897.131 363.762C905.486 373.273 915.766 380.658 927.955 385.919L928.748 384.083ZM898.639 362.447C890.476 353.029 884.255 342.035 879.977 329.454L878.084 330.098C882.439 342.908 888.785 354.131 897.127 363.756L898.639 362.447ZM879.978 329.457C875.7 316.748 873.556 302.956 873.556 288.072H871.556C871.556 303.15 873.728 317.16 878.083 330.095L879.978 329.457ZM921.829 284.073V288.072H923.829V284.073H921.829ZM921.829 288.072C921.829 297.152 922.724 305.668 924.52 313.62L926.471 313.179C924.711 305.388 923.829 297.02 923.829 288.072H921.829ZM924.52 313.62C926.318 321.583 929.085 328.608 932.833 334.681L934.535 333.631C930.919 327.771 928.227 320.958 926.471 313.179L924.52 313.62ZM932.833 334.681C936.597 340.782 941.474 345.597 947.46 349.11L948.472 347.386C942.778 344.043 938.134 339.464 934.535 333.631L932.833 334.681ZM947.482 349.123C953.625 352.521 960.908 354.199 969.294 354.199V352.199C961.176 352.199 954.24 350.576 948.45 347.373L947.482 349.123ZM969.294 354.199C977.555 354.199 984.715 352.52 990.733 349.119L989.749 347.377C984.088 350.577 977.283 352.199 969.294 352.199V354.199ZM990.747 349.11C996.733 345.597 1001.61 340.782 1005.37 334.681L1003.67 333.631C1000.07 339.464 995.429 344.043 989.735 347.386L990.747 349.11ZM1005.37 334.694C1009.25 328.617 1012.08 321.588 1013.88 313.62L1011.93 313.179C1010.17 320.953 1007.42 327.761 1003.68 333.618L1005.37 334.694ZM1013.88 313.62C1015.67 305.668 1016.57 297.152 1016.57 288.072H1014.57C1014.57 297.02 1013.69 305.388 1011.93 313.179L1013.88 313.62ZM1016.57 288.072V284.073H1014.57V288.072H1016.57ZM1016.57 284.073C1016.57 275.12 1015.67 266.729 1013.88 258.903L1011.93 259.351C1013.69 267.013 1014.57 275.253 1014.57 284.073H1016.57ZM1013.88 258.907C1012.08 250.938 1009.25 243.909 1005.37 237.832L1003.68 238.908C1007.42 244.765 1010.17 251.573 1011.93 259.347L1013.88 258.907ZM1005.38 237.853C1001.61 231.619 996.668 226.736 990.549 223.221L989.553 224.955C995.367 228.295 1000.07 232.933 1003.67 238.887L1005.38 237.853ZM990.571 223.234C984.545 219.566 977.31 217.756 968.913 217.756V219.756C977.02 219.756 983.877 221.501 989.531 224.942L990.571 223.234ZM968.913 217.756C960.64 217.756 953.47 219.567 947.446 223.234L948.486 224.942C954.142 221.499 960.937 219.756 968.913 219.756V217.756ZM947.46 223.225C941.469 226.742 936.591 231.624 932.828 237.853L934.54 238.887C938.14 232.928 942.783 228.289 948.472 224.95L947.46 223.225ZM932.833 237.845C929.085 243.919 926.318 250.944 924.52 258.907L926.471 259.347C928.227 251.568 930.919 244.755 934.535 238.895L932.833 237.845ZM924.52 258.903C922.724 266.729 921.829 275.12 921.829 284.073H923.829C923.829 275.253 924.711 267.013 926.47 259.351L924.52 258.903ZM1225.04 340.06H1224.04V340.091L1224.04 340.122L1225.04 340.06ZM1225.04 182.955V181.955H1224.04V182.955H1225.04ZM1275.7 182.955H1276.7V181.955H1275.7V182.955ZM1275.7 389V390H1276.7V389H1275.7ZM1228.09 389L1227.09 389.062L1227.15 390H1228.09V389ZM1231.52 297.403L1231.49 296.404L1230.52 296.427V297.403H1231.52ZM1247.13 297.022H1248.13V295.998L1247.11 296.023L1247.13 297.022ZM1228.28 365.768L1227.48 365.168L1227.48 365.169L1228.28 365.768ZM1204.09 385.763L1204.53 386.664L1204.54 386.659L1204.09 385.763ZM1141.63 388.619L1141.3 389.564L1141.32 389.568L1141.63 388.619ZM1119.92 375.099L1119.2 375.791L1119.21 375.798L1119.22 375.806L1119.92 375.099ZM1106.02 351.295L1105.08 351.615L1105.08 351.619L1106.02 351.295ZM1101.07 182.955V181.955H1100.07V182.955H1101.07ZM1151.34 182.955H1152.34V181.955H1151.34V182.955ZM1153.63 333.585L1152.68 333.901L1152.69 333.913L1152.69 333.925L1153.63 333.585ZM1160.29 344.82L1159.57 345.512L1159.59 345.528L1159.6 345.543L1160.29 344.82ZM1170.39 350.914L1170.07 351.863L1170.09 351.869L1170.11 351.874L1170.39 350.914ZM1211.71 345.392L1212.28 346.214L1212.28 346.212L1211.71 345.392ZM1226.95 325.587L1227.88 325.933L1227.89 325.929L1226.95 325.587ZM1226.04 340.06V182.955H1224.04V340.06H1226.04ZM1225.04 183.955H1275.7V181.955H1225.04V183.955ZM1274.7 182.955V389H1276.7V182.955H1274.7ZM1275.7 388H1228.09V390H1275.7V388ZM1229.09 388.938L1226.04 339.997L1224.04 340.122L1227.09 389.062L1229.09 388.938ZM1231.54 298.403L1247.16 298.022L1247.11 296.023L1231.49 296.404L1231.54 298.403ZM1246.13 297.022C1246.13 310.787 1244.62 323.46 1241.59 335.046L1243.53 335.551C1246.6 323.778 1248.13 310.933 1248.13 297.022H1246.13ZM1241.59 335.046C1238.57 346.615 1233.87 356.65 1227.48 365.168L1229.08 366.368C1235.64 357.619 1240.45 347.342 1243.53 335.551L1241.59 335.046ZM1227.48 365.169C1221.23 373.545 1213.29 380.11 1203.65 384.866L1204.54 386.659C1214.45 381.767 1222.64 375.002 1229.08 366.366L1227.48 365.169ZM1203.66 384.861C1194.05 389.481 1182.65 391.809 1169.44 391.809V393.809C1182.88 393.809 1194.59 391.439 1204.53 386.664L1203.66 384.861ZM1169.44 391.809C1159.37 391.809 1150.21 390.425 1141.95 387.67L1141.32 389.568C1149.81 392.399 1159.19 393.809 1169.44 393.809V391.809ZM1141.96 387.675C1133.72 384.803 1126.61 380.376 1120.63 374.392L1119.22 375.806C1125.42 382.009 1132.79 386.595 1141.3 389.563L1141.96 387.675ZM1120.65 374.406C1114.8 368.308 1110.23 360.507 1106.97 350.971L1105.08 351.619C1108.42 361.38 1113.12 369.448 1119.2 375.791L1120.65 374.406ZM1106.97 350.975C1103.71 341.33 1102.07 329.701 1102.07 316.065H1100.07C1100.07 329.852 1101.73 341.709 1105.08 351.615L1106.97 350.975ZM1102.07 316.065V182.955H1100.07V316.065H1102.07ZM1101.07 183.955H1151.34V181.955H1101.07V183.955ZM1150.34 182.955V316.446H1152.34V182.955H1150.34ZM1150.34 316.446C1150.34 323.368 1151.11 329.196 1152.68 333.901L1154.58 333.269C1153.1 328.834 1152.34 323.236 1152.34 316.446H1150.34ZM1152.69 333.925C1154.38 338.6 1156.67 342.473 1159.57 345.512L1161.02 344.129C1158.34 341.328 1156.18 337.711 1154.57 333.245L1152.69 333.925ZM1159.6 345.543C1162.63 348.437 1166.12 350.546 1170.07 351.863L1170.7 349.965C1167.04 348.743 1163.8 346.789 1160.99 344.098L1159.6 345.543ZM1170.11 351.874C1174.14 353.045 1178.43 353.628 1182.96 353.628V351.628C1178.6 351.628 1174.5 351.068 1170.67 349.954L1170.11 351.874ZM1182.96 353.628C1195.26 353.628 1205.07 351.194 1212.28 346.214L1211.14 344.569C1204.39 349.237 1195.03 351.628 1182.96 351.628V353.628ZM1212.28 346.212C1219.56 341.142 1224.77 334.374 1227.88 325.933L1226.01 325.241C1223.03 333.304 1218.08 339.739 1211.14 344.571L1212.28 346.212ZM1227.89 325.929C1230.98 317.424 1232.52 307.911 1232.52 297.403H1230.52C1230.52 307.716 1229.01 316.992 1226.01 325.245L1227.89 325.929ZM1370.53 225.04H1371.53V225.008L1371.53 224.977L1370.53 225.04ZM1370.53 389V390H1371.53V389H1370.53ZM1320.26 389H1319.26V390H1320.26V389ZM1320.26 182.955V181.955H1319.26V182.955H1320.26ZM1367.86 182.955L1368.86 182.892L1368.8 181.955H1367.86V182.955ZM1433.18 181.622L1434.18 181.638L1434.19 180.949L1433.55 180.694L1433.18 181.622ZM1432.42 228.468L1432.24 229.452L1433.4 229.662L1433.42 228.484L1432.42 228.468ZM1422.9 227.325L1422.82 228.322L1422.83 228.323L1422.9 227.325ZM1392.81 230.182L1393.14 231.126L1393.15 231.123L1393.16 231.12L1392.81 230.182ZM1378.15 239.132L1377.44 238.425L1377.43 238.431L1377.43 238.436L1378.15 239.132ZM1369.39 253.604L1370.33 253.946L1370.33 253.94L1369.39 253.604ZM1365.96 272.647L1365.84 273.64L1366.92 273.773L1366.96 272.683L1365.96 272.647ZM1355.1 271.314H1354.1V272.199L1354.98 272.307L1355.1 271.314ZM1389.76 186.192L1390.28 187.05L1390.28 187.047L1389.76 186.192ZM1425.37 179.908L1425.22 180.896L1425.24 180.899L1425.26 180.902L1425.37 179.908ZM1369.53 225.04V389H1371.53V225.04H1369.53ZM1370.53 388H1320.26V390H1370.53V388ZM1321.26 389V182.955H1319.26V389H1321.26ZM1320.26 183.955H1367.86V181.955H1320.26V183.955ZM1366.87 183.018L1369.53 225.103L1371.53 224.977L1368.86 182.892L1366.87 183.018ZM1432.18 181.606L1431.42 228.452L1433.42 228.484L1434.18 181.638L1432.18 181.606ZM1432.6 227.484C1429.76 226.968 1426.55 226.584 1422.97 226.328L1422.83 228.323C1426.35 228.575 1429.49 228.952 1432.24 229.452L1432.6 227.484ZM1422.97 226.328C1419.52 226.072 1416.26 225.944 1413.19 225.944V227.944C1416.2 227.944 1419.42 228.07 1422.82 228.322L1422.97 226.328ZM1413.19 225.944C1405.35 225.944 1398.44 227.036 1392.46 229.244L1393.16 231.12C1398.86 229.011 1405.53 227.944 1413.19 227.944V225.944ZM1392.48 229.237C1386.51 231.312 1381.49 234.371 1377.44 238.425L1378.85 239.839C1382.67 236.021 1387.42 233.113 1393.14 231.126L1392.48 229.237ZM1377.43 238.436C1373.51 242.485 1370.52 247.436 1368.44 253.269L1370.33 253.94C1372.32 248.347 1375.17 243.649 1378.87 239.827L1377.43 238.436ZM1368.45 253.263C1366.37 258.964 1365.22 265.418 1364.96 272.612L1366.96 272.683C1367.21 265.658 1368.34 259.417 1370.33 253.946L1368.45 253.263ZM1366.08 271.655L1355.23 270.322L1354.98 272.307L1365.84 273.64L1366.08 271.655ZM1356.1 271.314C1356.1 258.306 1357.43 246.261 1360.08 235.175L1358.13 234.71C1355.44 245.968 1354.1 258.171 1354.1 271.314H1356.1ZM1360.08 235.175C1362.72 224.087 1366.56 214.411 1371.57 206.135L1369.86 205.098C1364.72 213.579 1360.82 223.454 1358.13 234.71L1360.08 235.175ZM1371.57 206.135C1376.58 197.88 1382.81 191.528 1390.28 187.05L1389.25 185.335C1381.48 189.997 1375.02 196.595 1369.86 205.098L1371.57 206.135ZM1390.28 187.047C1397.85 182.455 1406.56 180.146 1416.42 180.146V178.146C1406.23 178.146 1397.16 180.535 1389.24 185.337L1390.28 187.047ZM1416.42 180.146C1419.16 180.146 1422.09 180.395 1425.22 180.896L1425.53 178.921C1422.31 178.406 1419.28 178.146 1416.42 178.146V180.146ZM1425.26 180.902C1428.52 181.278 1431.02 181.836 1432.81 182.551L1433.55 180.694C1431.53 179.885 1428.83 179.3 1425.49 178.915L1425.26 180.902ZM1510.11 226.944H1511.11V226.91L1511.11 226.875L1510.11 226.944ZM1510.11 389V390H1511.11V389H1510.11ZM1459.84 389H1458.84V390H1459.84V389ZM1459.84 182.955V181.955H1458.84V182.955H1459.84ZM1507.07 182.955L1508.06 182.886L1508 181.955H1507.07V182.955ZM1502.12 278.551V279.551H1503.12V278.551H1502.12ZM1487.26 278.551L1486.26 278.542L1486.25 279.551H1487.26V278.551ZM1509.92 206.378L1509.15 205.741L1509.15 205.748L1509.92 206.378ZM1616.18 196.666L1615.45 197.35L1615.46 197.358L1616.18 196.666ZM1629.51 220.66L1628.56 220.954L1628.56 220.962L1628.56 220.969L1629.51 220.66ZM1634.27 389V390H1635.27V389H1634.27ZM1583.62 389H1582.62V390H1583.62V389ZM1579.43 234.181L1578.53 234.619L1578.54 234.628L1578.54 234.636L1579.43 234.181ZM1567.62 222.564L1567.21 223.476L1567.22 223.48L1567.62 222.564ZM1528.4 223.897L1528.87 224.78L1528.87 224.776L1528.4 223.897ZM1513.92 236.656L1513.11 236.071L1513.11 236.078L1513.1 236.084L1513.92 236.656ZM1509.11 226.944V389H1511.11V226.944H1509.11ZM1510.11 388H1459.84V390H1510.11V388ZM1460.84 389V182.955H1458.84V389H1460.84ZM1459.84 183.955H1507.07V181.955H1459.84V183.955ZM1506.07 183.024L1509.12 227.013L1511.11 226.875L1508.06 182.886L1506.07 183.024ZM1502.12 277.551H1487.26V279.551H1502.12V277.551ZM1488.26 278.559C1488.39 263.663 1490.41 250.182 1494.31 238.106L1492.4 237.492C1488.43 249.79 1486.39 263.477 1486.26 278.542L1488.26 278.559ZM1494.31 238.106C1498.21 226.02 1503.68 215.66 1510.7 207.008L1509.15 205.748C1501.95 214.615 1496.37 225.202 1492.4 237.492L1494.31 238.106ZM1510.69 207.015C1517.84 198.364 1526.3 191.728 1536.06 187.096L1535.2 185.289C1525.16 190.051 1516.48 196.873 1509.15 205.741L1510.69 207.015ZM1536.06 187.096C1545.81 182.469 1556.71 180.146 1568.77 180.146V178.146C1556.45 178.146 1545.25 180.521 1535.2 185.289L1536.06 187.096ZM1568.77 180.146C1578.58 180.146 1587.41 181.53 1595.29 184.28L1595.95 182.392C1587.83 179.556 1578.76 178.146 1568.77 178.146V180.146ZM1595.29 184.28C1603.14 187.021 1609.85 191.376 1615.45 197.35L1616.91 195.982C1611.09 189.769 1604.09 185.237 1595.95 182.392L1595.29 184.28ZM1615.46 197.358C1621.17 203.316 1625.55 211.168 1628.56 220.954L1630.47 220.366C1627.39 210.348 1622.88 202.203 1616.91 195.974L1615.46 197.358ZM1628.56 220.969C1631.69 230.614 1633.27 242.563 1633.27 256.842H1635.27C1635.27 242.429 1633.68 230.257 1630.46 220.351L1628.56 220.969ZM1633.27 256.842V389H1635.27V256.842H1633.27ZM1634.27 388H1583.62V390H1634.27V388ZM1584.62 389V256.461H1582.62V389H1584.62ZM1584.62 256.461C1584.62 246.985 1583.21 239.38 1580.32 233.725L1578.54 234.636C1581.23 239.899 1582.62 247.148 1582.62 256.461H1584.62ZM1580.33 233.742C1577.57 228.086 1573.46 224.036 1568.03 221.649L1567.22 223.48C1572.19 225.663 1575.96 229.357 1578.53 234.619L1580.33 233.742ZM1568.03 221.653C1562.79 219.293 1556.36 218.137 1548.77 218.137V220.137C1556.17 220.137 1562.3 221.266 1567.21 223.476L1568.03 221.653ZM1548.77 218.137C1540.89 218.137 1533.93 219.753 1527.92 223.019L1528.87 224.776C1534.54 221.694 1541.17 220.137 1548.77 220.137V218.137ZM1527.92 223.015C1522.07 226.137 1517.13 230.494 1513.11 236.071L1514.73 237.241C1518.58 231.901 1523.29 227.752 1528.87 224.78L1527.92 223.015ZM1513.1 236.084C1509.22 241.643 1506.26 248.03 1504.2 255.234L1506.12 255.784C1508.13 248.769 1511 242.587 1514.74 237.228L1513.1 236.084ZM1504.2 255.234C1502.14 262.442 1501.12 270.217 1501.12 278.551H1503.12C1503.12 270.381 1504.12 262.794 1506.12 255.784L1504.2 255.234ZM1740.92 219.518L1740.5 218.606L1740.5 218.61L1740.92 219.518ZM1729.49 229.229L1730.33 229.778L1730.33 229.766L1729.49 229.229ZM1725.49 243.321V244.321H1726.49V243.321H1725.49ZM1675.03 243.321H1674.03V244.321H1675.03V243.321ZM1681.12 219.137L1682 219.607L1682.01 219.601L1681.12 219.137ZM1698.45 198.57L1699.07 199.352L1699.07 199.351L1698.45 198.57ZM1725.68 184.288L1725.37 183.336L1725.37 183.337L1725.68 184.288ZM1803.19 187.145L1802.78 188.061L1802.8 188.066L1803.19 187.145ZM1832.13 210.758L1831.3 211.31L1831.3 211.317L1832.13 210.758ZM1844.7 366.91L1843.71 367.08L1843.72 367.09L1843.72 367.1L1844.7 366.91ZM1850.79 385.763H1851.79V385.527L1851.69 385.315L1850.79 385.763ZM1850.79 389V390H1851.79V389H1850.79ZM1799.57 389L1798.66 389.42L1798.93 390H1799.57V389ZM1794.04 369.195L1793.06 369.35L1793.06 369.352L1794.04 369.195ZM1799.19 263.507L1800.19 263.494L1800.17 262.507H1799.19V263.507ZM1799.57 293.404V294.404H1800.58L1800.57 293.392L1799.57 293.404ZM1747.01 295.88L1747.26 296.849L1747.27 296.846L1747.28 296.844L1747.01 295.88ZM1732.35 302.735L1732.95 303.529L1732.96 303.523L1732.97 303.516L1732.35 302.735ZM1723.78 313.399L1724.68 313.824L1724.69 313.813L1723.78 313.399ZM1724.35 341.012L1723.48 341.502L1723.48 341.512L1723.49 341.522L1724.35 341.012ZM1734.63 350.724L1734.15 351.602L1734.17 351.611L1734.18 351.618L1734.63 350.724ZM1773.86 348.819L1774.33 349.7L1774.34 349.696L1774.35 349.693L1773.86 348.819ZM1795.19 320.636L1796.02 320.081L1794.35 317.579L1794.19 320.582L1795.19 320.636ZM1809.66 342.345L1810.61 342.668L1810.77 342.201L1810.49 341.79L1809.66 342.345ZM1694.64 281.217L1695.22 282.031L1695.23 282.024L1694.64 281.217ZM1724.35 268.077L1724.59 269.048L1724.6 269.046L1724.35 268.077ZM1793.14 345.201V250.177H1791.14V345.201H1793.14ZM1793.14 250.177C1793.14 243.081 1791.92 236.897 1789.43 231.657L1787.62 232.515C1789.95 237.431 1791.14 243.308 1791.14 250.177H1793.14ZM1789.43 231.657C1786.92 226.39 1783.1 222.301 1777.97 219.408L1776.99 221.15C1781.76 223.843 1785.3 227.625 1787.62 232.515L1789.43 231.657ZM1777.97 219.408C1772.83 216.507 1766.36 215.09 1758.62 215.09V217.09C1766.13 217.09 1772.23 218.466 1776.99 221.15L1777.97 219.408ZM1758.62 215.09C1751.78 215.09 1745.74 216.252 1740.5 218.606L1741.33 220.429C1746.25 218.213 1752.01 217.09 1758.62 217.09V215.09ZM1740.5 218.61C1735.39 220.967 1731.42 224.326 1728.65 228.693L1730.33 229.766C1732.89 225.755 1736.54 222.638 1741.33 220.426L1740.5 218.61ZM1728.65 228.681C1725.87 232.922 1724.49 237.814 1724.49 243.321H1726.49C1726.49 238.164 1727.78 233.662 1730.33 229.778L1728.65 228.681ZM1725.49 242.321H1675.03V244.321H1725.49V242.321ZM1676.03 243.321C1676.03 234.982 1678.02 227.082 1682 219.607L1680.24 218.666C1676.1 226.426 1674.03 234.649 1674.03 243.321H1676.03ZM1682.01 219.601C1686 211.991 1691.68 205.241 1699.07 199.352L1697.83 197.788C1690.24 203.833 1684.37 210.794 1680.23 218.672L1682.01 219.601ZM1699.07 199.351C1706.59 193.342 1715.55 188.635 1725.99 185.239L1725.37 183.337C1714.74 186.797 1705.55 191.611 1697.82 197.789L1699.07 199.351ZM1725.99 185.24C1736.54 181.849 1748.36 180.146 1761.48 180.146V178.146C1748.19 178.146 1736.15 179.871 1725.37 183.336L1725.99 185.24ZM1761.48 180.146C1776.98 180.146 1790.74 182.793 1802.78 188.061L1803.59 186.228C1791.25 180.832 1777.21 178.146 1761.48 178.146V180.146ZM1802.8 188.066C1814.94 193.199 1824.43 200.947 1831.3 211.31L1832.96 210.205C1825.87 199.495 1816.06 191.5 1803.57 186.223L1802.8 188.066ZM1831.3 211.317C1838.27 221.651 1841.79 234.709 1841.79 250.558H1843.79C1843.79 234.414 1840.21 220.939 1832.96 210.199L1831.3 211.317ZM1841.79 250.558V340.44H1843.79V250.558H1841.79ZM1841.79 340.44C1841.79 350.761 1842.43 359.644 1843.71 367.08L1845.68 366.74C1844.43 359.45 1843.79 350.686 1843.79 340.44H1841.79ZM1843.72 367.1C1845.13 374.405 1847.18 380.78 1849.9 386.21L1851.69 385.315C1849.07 380.082 1847.06 373.888 1845.68 366.721L1843.72 367.1ZM1849.79 385.763V389H1851.79V385.763H1849.79ZM1850.79 388H1799.57V390H1850.79V388ZM1800.47 388.58C1798.11 383.485 1796.29 376.98 1795.03 369.039L1793.06 369.352C1794.34 377.407 1796.2 384.105 1798.66 389.42L1800.47 388.58ZM1795.03 369.041C1793.77 360.965 1793.14 353.018 1793.14 345.201H1791.14C1791.14 353.126 1791.78 361.176 1793.06 369.35L1795.03 369.041ZM1798.19 263.52L1798.57 293.417L1800.57 293.392L1800.19 263.494L1798.19 263.52ZM1799.57 292.404H1767.77V294.404H1799.57V292.404ZM1767.77 292.404C1759.83 292.404 1752.82 293.236 1746.74 294.916L1747.28 296.844C1753.14 295.223 1759.96 294.404 1767.77 294.404V292.404ZM1746.76 294.911C1740.69 296.461 1735.67 298.799 1731.72 301.954L1732.97 303.516C1736.64 300.578 1741.39 298.346 1747.26 296.849L1746.76 294.911ZM1731.74 301.942C1727.8 304.957 1724.84 308.64 1722.87 312.986L1724.69 313.813C1726.52 309.78 1729.27 306.353 1732.95 303.529L1731.74 301.942ZM1722.87 312.975C1720.9 317.19 1719.92 321.972 1719.92 327.301H1721.92C1721.92 322.219 1722.85 317.734 1724.68 313.824L1722.87 312.975ZM1719.92 327.301C1719.92 332.535 1721.1 337.277 1723.48 341.502L1725.22 340.521C1723.03 336.622 1721.92 332.223 1721.92 327.301H1719.92ZM1723.49 341.522C1726 345.751 1729.56 349.111 1734.15 351.602L1735.11 349.845C1730.81 347.512 1727.52 344.398 1725.21 340.501L1723.49 341.522ZM1734.18 351.618C1738.92 353.985 1744.41 355.151 1750.63 355.151V353.151C1744.66 353.151 1739.49 352.033 1735.08 349.829L1734.18 351.618ZM1750.63 355.151C1759.65 355.151 1767.56 353.346 1774.33 349.7L1773.39 347.939C1766.95 351.402 1759.38 353.151 1750.63 353.151V355.151ZM1774.35 349.693C1781.05 345.952 1786.32 341.414 1790.1 336.067L1788.47 334.912C1784.89 339.974 1779.87 344.324 1773.37 347.946L1774.35 349.693ZM1790.1 336.067C1793.85 330.761 1795.92 325.631 1796.19 320.69L1794.19 320.582C1793.95 325.035 1792.08 329.808 1788.47 334.912L1790.1 336.067ZM1794.36 321.19L1808.83 342.899L1810.49 341.79L1796.02 320.081L1794.36 321.19ZM1808.71 342.022C1806.96 347.144 1804.33 352.6 1800.81 358.392L1802.52 359.432C1806.1 353.544 1808.8 347.956 1810.61 342.668L1808.71 342.022ZM1800.81 358.392C1797.31 364.142 1792.8 369.529 1787.28 374.549L1788.62 376.029C1794.27 370.893 1798.91 365.362 1802.52 359.432L1800.81 358.392ZM1787.28 374.549C1781.79 379.541 1775.16 383.673 1767.38 386.935L1768.15 388.78C1776.11 385.44 1782.94 381.193 1788.62 376.029L1787.28 374.549ZM1767.38 386.935C1759.65 390.175 1750.65 391.809 1740.34 391.809V393.809C1750.86 393.809 1760.14 392.142 1768.15 388.78L1767.38 386.935ZM1740.34 391.809C1727.15 391.809 1715.37 389.171 1704.99 383.918L1704.09 385.703C1714.79 391.114 1726.88 393.809 1740.34 393.809V391.809ZM1704.99 383.918C1694.6 378.66 1686.42 371.474 1680.43 362.362L1678.76 363.461C1684.96 372.883 1693.41 380.297 1704.09 385.703L1704.99 383.918ZM1680.43 362.362C1674.45 353.268 1671.46 342.924 1671.46 331.3H1669.46C1669.46 343.288 1672.55 354.019 1678.76 363.461L1680.43 362.362ZM1671.46 331.3C1671.46 320.507 1673.46 311.012 1677.45 302.791L1675.65 301.918C1671.51 310.455 1669.46 320.257 1669.46 331.3H1671.46ZM1677.45 302.791C1681.44 294.571 1687.35 287.652 1695.22 282.031L1694.06 280.403C1685.93 286.208 1679.79 293.38 1675.65 301.918L1677.45 302.791ZM1695.23 282.024C1703.1 276.276 1712.88 271.944 1724.59 269.048L1724.11 267.106C1712.2 270.051 1702.17 274.477 1694.05 280.409L1695.23 282.024ZM1724.6 269.046C1736.43 266.024 1749.99 264.507 1765.29 264.507V262.507C1749.86 262.507 1736.13 264.036 1724.1 267.108L1724.6 269.046ZM1765.29 264.507H1799.19V262.507H1765.29V264.507ZM1941.44 96.5H1942.44V95.5H1941.44V96.5ZM1941.44 389V390H1942.44V389H1941.44ZM1890.97 389H1889.97V390H1890.97V389ZM1890.97 96.5V95.5H1889.97V96.5H1890.97ZM1940.44 96.5V389H1942.44V96.5H1940.44ZM1941.44 388H1890.97V390H1941.44V388ZM1891.97 389V96.5H1889.97V389H1891.97ZM1890.97 97.5H1941.44V95.5H1890.97V97.5ZM2306.49 314.161L2307.44 314.48L2307.44 314.477L2306.49 314.161ZM2245.93 383.478L2246.34 384.394L2245.93 383.478ZM2151.29 383.478L2150.89 384.394L2150.89 384.395L2151.29 383.478ZM2090.16 314.161L2089.22 314.484L2089.22 314.486L2090.16 314.161ZM2114.16 144.298L2114.91 144.959L2114.91 144.955L2114.16 144.298ZM2150.91 117.257L2150.51 116.339L2150.51 116.341L2150.91 117.257ZM2282.31 144.298L2281.55 144.955L2281.56 144.963L2282.31 144.298ZM2306.3 186.764L2305.35 187.082L2305.36 187.089L2306.3 186.764ZM2257.74 203.141L2256.77 203.376L2256.77 203.378L2257.74 203.141ZM2225.18 156.295L2224.72 157.187L2224.74 157.192L2225.18 156.295ZM2171.1 156.295L2171.55 157.186L2171.55 157.184L2171.1 156.295ZM2138.72 203.141L2137.75 202.896L2137.75 202.903L2138.72 203.141ZM2138.72 297.403L2137.75 297.638L2137.75 297.648L2138.72 297.403ZM2151.29 326.729L2150.47 327.293L2150.47 327.301L2150.48 327.308L2151.29 326.729ZM2245.36 326.729L2244.54 326.166L2244.54 326.169L2245.36 326.729ZM2313.87 243.321V257.604H2315.87V243.321H2313.87ZM2313.87 257.604C2313.87 278.463 2311.09 297.206 2305.54 313.845L2307.44 314.477C2313.07 297.601 2315.87 278.639 2315.87 257.604H2313.87ZM2305.54 313.843C2299.99 330.363 2292.12 344.398 2281.94 355.966L2283.44 357.288C2293.82 345.496 2301.82 331.22 2307.44 314.48L2305.54 313.843ZM2281.94 355.966C2271.75 367.536 2259.62 376.399 2245.53 382.561L2246.34 384.394C2260.69 378.114 2273.06 369.077 2283.44 357.288L2281.94 355.966ZM2245.53 382.561C2231.46 388.72 2215.79 391.809 2198.52 391.809V393.809C2216.03 393.809 2231.98 390.676 2246.34 384.394L2245.53 382.561ZM2198.52 391.809C2181.5 391.809 2165.9 388.721 2151.69 382.56L2150.89 384.395C2165.38 390.675 2181.26 393.809 2198.52 393.809V391.809ZM2151.69 382.561C2137.61 376.399 2125.41 367.535 2115.09 355.962L2113.6 357.292C2124.11 369.079 2136.54 378.115 2150.89 384.394L2151.69 382.561ZM2115.09 355.962C2104.78 344.393 2096.78 330.357 2091.11 313.836L2089.22 314.486C2094.97 331.227 2103.09 345.502 2113.6 357.292L2115.09 355.962ZM2091.11 313.838C2085.44 297.202 2082.59 278.461 2082.59 257.604H2080.59C2080.59 278.641 2083.46 297.605 2089.22 314.484L2091.11 313.838ZM2082.59 257.604V243.321H2080.59V257.604H2082.59ZM2082.59 243.321C2082.59 222.336 2085.44 203.596 2091.11 187.089L2089.22 186.439C2083.46 203.193 2080.59 222.158 2080.59 243.321H2082.59ZM2091.11 187.089C2096.78 170.565 2104.72 156.528 2114.91 144.959L2113.41 143.637C2103.03 155.427 2094.97 169.7 2089.22 186.439L2091.11 187.089ZM2114.91 144.955C2125.1 133.258 2137.23 124.334 2151.31 118.173L2150.51 116.341C2136.15 122.621 2123.78 131.724 2113.4 143.641L2114.91 144.955ZM2151.31 118.174C2165.52 112.013 2181.12 108.926 2198.14 108.926V106.926C2180.87 106.926 2165 110.059 2150.51 116.339L2151.31 118.174ZM2198.14 108.926C2215.41 108.926 2231.07 112.014 2245.15 118.173L2245.95 116.341C2231.59 110.058 2215.65 106.926 2198.14 106.926V108.926ZM2245.15 118.173C2259.23 124.334 2271.37 133.258 2281.55 144.955L2283.06 143.641C2272.68 131.724 2260.31 122.621 2245.95 116.341L2245.15 118.173ZM2281.56 144.963C2291.87 156.53 2299.8 170.564 2305.35 187.082L2307.25 186.445C2301.63 169.702 2293.56 155.425 2283.05 143.632L2281.56 144.963ZM2305.36 187.089C2311.03 203.596 2313.87 222.336 2313.87 243.321H2315.87C2315.87 222.158 2313 203.193 2307.25 186.439L2305.36 187.089ZM2262.93 257.604V242.94H2260.93V257.604H2262.93ZM2262.93 242.94C2262.93 227.774 2261.53 214.425 2258.71 202.903L2256.77 203.378C2259.54 214.708 2260.93 227.892 2260.93 242.94H2262.93ZM2258.71 202.906C2255.9 191.261 2251.73 181.429 2246.18 173.435L2244.54 174.575C2249.92 182.323 2254 191.915 2256.77 203.376L2258.71 202.906ZM2246.18 173.435C2240.64 165.435 2233.78 159.414 2225.62 155.398L2224.74 157.192C2232.57 161.047 2239.17 166.833 2244.54 174.575L2246.18 173.435ZM2225.63 155.403C2217.48 151.262 2208.3 149.201 2198.14 149.201V151.201C2208.03 151.201 2216.88 153.203 2224.72 157.187L2225.63 155.403ZM2198.14 149.201C2187.84 149.201 2178.67 151.261 2170.64 155.406L2171.55 157.184C2179.26 153.204 2188.12 151.201 2198.14 151.201V149.201ZM2170.64 155.403C2162.74 159.421 2156.01 165.442 2150.47 173.435L2152.11 174.575C2157.49 166.825 2163.97 161.039 2171.55 157.186L2170.64 155.403ZM2150.47 173.435C2144.93 181.425 2140.7 191.254 2137.75 202.896L2139.69 203.386C2142.59 191.922 2146.74 182.327 2152.11 174.575L2150.47 173.435ZM2137.75 202.903C2134.93 214.425 2133.53 227.774 2133.53 242.94H2135.53C2135.53 227.892 2136.92 214.708 2139.69 203.378L2137.75 202.903ZM2133.53 242.94V257.604H2135.53V242.94H2133.53ZM2133.53 257.604C2133.53 272.644 2134.94 285.992 2137.75 297.638L2139.69 297.168C2136.92 285.709 2135.53 272.524 2135.53 257.604H2133.53ZM2137.75 297.648C2140.7 309.29 2144.93 319.179 2150.47 327.293L2152.12 326.166C2146.74 318.284 2142.59 308.623 2139.69 297.158L2137.75 297.648ZM2150.48 327.308C2156.15 335.298 2162.99 341.376 2171.02 345.519L2171.94 343.741C2164.22 339.758 2157.61 333.903 2152.11 326.151L2150.48 327.308ZM2171.02 345.519C2179.05 349.664 2188.23 351.724 2198.52 351.724V349.724C2188.5 349.724 2179.64 347.72 2171.94 343.741L2171.02 345.519ZM2198.52 351.724C2208.81 351.724 2217.98 349.664 2226.02 345.519L2225.1 343.741C2217.39 347.72 2208.54 349.724 2198.52 349.724V351.724ZM2226.02 345.519C2234.05 341.374 2240.77 335.289 2246.19 327.29L2244.54 326.169C2239.29 333.912 2232.81 339.761 2225.1 343.741L2226.02 345.519ZM2246.19 327.293C2251.73 319.176 2255.9 309.283 2258.71 297.638L2256.77 297.168C2254 308.629 2249.91 318.287 2244.54 326.166L2246.19 327.293ZM2258.71 297.638C2261.53 285.992 2262.93 272.644 2262.93 257.604H2260.93C2260.93 272.524 2259.54 285.709 2256.77 297.168L2258.71 297.638ZM2421.32 389V390H2422.32V389H2421.32ZM2370.67 389H2369.67V390H2370.67V389ZM2379.62 124.874L2380.49 125.367L2380.49 125.362L2379.62 124.874ZM2458.26 93.4531L2458.12 94.4431L2458.13 94.4436L2458.26 93.4531ZM2471.78 96.1191L2472.78 96.144L2472.8 95.3488L2472.03 95.1506L2471.78 96.1191ZM2470.83 134.396L2470.58 135.363L2471.8 135.684L2471.83 134.42L2470.83 134.396ZM2462.83 133.062L2462.74 134.058L2462.75 134.059L2462.83 133.062ZM2424.94 146.964L2424.06 146.488L2424.05 146.497L2424.94 146.964ZM2463.02 182.955H2464.02V181.955H2463.02V182.955ZM2463.02 219.137V220.137H2464.02V219.137H2463.02ZM2339.63 219.137H2338.63V220.137H2339.63V219.137ZM2339.63 182.955V181.955H2338.63V182.955H2339.63ZM2421.32 388H2370.67V390H2421.32V388ZM2371.67 389V163.912H2369.67V389H2371.67ZM2371.67 163.912C2371.67 148.549 2374.63 135.717 2380.49 125.367L2378.75 124.381C2372.67 135.105 2369.67 148.298 2369.67 163.912H2371.67ZM2380.49 125.362C2386.36 114.876 2394.71 106.956 2405.58 101.586L2404.69 99.793C2393.47 105.341 2384.81 113.544 2378.74 124.386L2380.49 125.362ZM2405.58 101.586C2416.46 96.2082 2429.31 93.501 2444.17 93.501V91.501C2429.07 91.501 2415.9 94.2528 2404.69 99.793L2405.58 101.586ZM2444.17 93.501C2449.08 93.501 2453.73 93.8156 2458.12 94.4431L2458.41 92.4632C2453.91 91.8211 2449.17 91.501 2444.17 91.501V93.501ZM2458.13 94.4436C2462.66 95.0732 2467.13 95.9545 2471.54 97.0876L2472.03 95.1506C2467.55 93.9986 2463.01 93.1026 2458.4 92.4626L2458.13 94.4436ZM2470.78 96.0943L2469.83 134.371L2471.83 134.42L2472.78 96.144L2470.78 96.0943ZM2471.09 133.428C2468.61 132.777 2465.89 132.324 2462.92 132.066L2462.75 134.059C2465.62 134.309 2468.23 134.745 2470.58 135.363L2471.09 133.428ZM2462.92 132.067C2460.1 131.809 2456.95 131.682 2453.5 131.682V133.682C2456.91 133.682 2459.99 133.808 2462.74 134.058L2462.92 132.067ZM2453.5 131.682C2446.53 131.682 2440.53 132.908 2435.54 135.405L2436.43 137.194C2441.08 134.868 2446.76 133.682 2453.5 133.682V131.682ZM2435.54 135.405C2430.53 137.908 2426.7 141.608 2424.06 146.488L2425.82 147.439C2428.26 142.925 2431.79 139.515 2436.43 137.194L2435.54 135.405ZM2424.05 146.497C2421.55 151.248 2420.32 157.068 2420.32 163.912H2422.32C2422.32 157.299 2423.51 151.82 2425.82 147.431L2424.05 146.497ZM2420.32 163.912V389H2422.32V163.912H2420.32ZM2462.02 182.955V219.137H2464.02V182.955H2462.02ZM2463.02 218.137H2339.63V220.137H2463.02V218.137ZM2340.63 219.137V182.955H2338.63V219.137H2340.63ZM2339.63 183.955H2463.02V181.955H2339.63V183.955ZM2617.84 111.734V110.734H2616.41L2616.91 112.082L2617.84 111.734ZM2663.17 111.734L2664.11 111.393L2663.87 110.734H2663.17V111.734ZM2738.96 320.445L2738.02 320.787L2738.96 323.378L2739.9 320.786L2738.96 320.445ZM2814.56 111.734V110.734H2813.86L2813.62 111.394L2814.56 111.734ZM2860.07 111.734L2861.01 112.083L2861.51 110.734H2860.07V111.734ZM2757.05 389V390H2757.74L2757.99 389.348L2757.05 389ZM2720.68 389L2719.74 389.348L2719.98 390H2720.68V389ZM2594.99 111.734V110.734H2593.99V111.734H2594.99ZM2639.36 111.734L2640.36 111.693L2640.32 110.734H2639.36V111.734ZM2647.36 303.497H2648.36V303.476L2648.36 303.455L2647.36 303.497ZM2647.36 389V390H2648.36V389H2647.36ZM2594.99 389H2593.99V390H2594.99V389ZM2838.36 111.734V110.734H2837.4L2837.36 111.694L2838.36 111.734ZM2882.92 111.734H2883.92V110.734H2882.92V111.734ZM2882.92 389V390H2883.92V389H2882.92ZM2830.55 389H2829.55V390H2830.55V389ZM2830.55 303.497L2829.55 303.456L2829.55 303.477V303.497H2830.55ZM2617.84 112.734H2663.17V110.734H2617.84V112.734ZM2662.23 112.076L2738.02 320.787L2739.9 320.104L2664.11 111.393L2662.23 112.076ZM2739.9 320.786L2815.5 112.075L2813.62 111.394L2738.02 320.105L2739.9 320.786ZM2814.56 112.734H2860.07V110.734H2814.56V112.734ZM2859.13 111.386L2756.11 388.652L2757.99 389.348L2861.01 112.083L2859.13 111.386ZM2757.05 388H2720.68V390H2757.05V388ZM2721.61 388.652L2618.78 111.387L2616.91 112.082L2719.74 389.348L2721.61 388.652ZM2594.99 112.734H2639.36V110.734H2594.99V112.734ZM2638.36 111.776L2646.36 303.539L2648.36 303.455L2640.36 111.693L2638.36 111.776ZM2646.36 303.497V389H2648.36V303.497H2646.36ZM2647.36 388H2594.99V390H2647.36V388ZM2595.99 389V111.734H2593.99V389H2595.99ZM2838.36 112.734H2882.92V110.734H2838.36V112.734ZM2881.92 111.734V389H2883.92V111.734H2881.92ZM2882.92 388H2830.55V390H2882.92V388ZM2831.55 389V303.497H2829.55V389H2831.55ZM2831.55 303.538L2839.36 111.775L2837.36 111.694L2829.55 303.456L2831.55 303.538ZM2951.1 364.054L2950.37 364.74L2950.37 364.746L2950.38 364.751L2951.1 364.054ZM2931.1 332.252L2930.16 332.603L2930.17 332.615L2931.1 332.252ZM2931.1 242.179L2932.04 242.512L2932.04 242.509L2931.1 242.179ZM3057.93 186.573L3057.52 187.488L3057.53 187.491L3057.93 186.573ZM3102.87 239.132L3101.91 239.425L3101.91 239.427L3102.87 239.132ZM3108.58 301.212V302.212H3109.58V301.212H3108.58ZM2947.1 301.212H2946.1V302.212H2947.1V301.212ZM2947.1 266.554V265.554H2946.1V266.554H2947.1ZM3059.07 266.554V267.554H3060.07V266.554H3059.07ZM3059.07 262.745H3060.07V262.729L3060.07 262.713L3059.07 262.745ZM3054.5 240.846L3053.58 241.229L3053.58 241.235L3054.5 240.846ZM3041.55 224.85L3040.98 225.671L3040.98 225.675L3040.99 225.679L3041.55 224.85ZM2999.27 223.707L2999.78 224.572L2999.78 224.568L2999.27 223.707ZM2985.56 237.418L2984.71 236.893L2984.71 236.898L2985.56 237.418ZM2978.33 317.018L2977.37 317.314L2977.37 317.321L2977.38 317.329L2978.33 317.018ZM2988.8 336.251L2988.03 336.893L2988.04 336.903L2988.05 336.912L2988.8 336.251ZM3005.56 348.819L3005.13 349.724L3005.14 349.729L3005.15 349.734L3005.56 348.819ZM3056.59 347.105L3057.02 348.008L3057.03 348.005L3056.59 347.105ZM3079.06 328.634L3079.78 327.94L3078.99 327.111L3078.28 328.018L3079.06 328.634ZM3104.39 354.913L3105.22 355.475L3105.68 354.804L3105.11 354.219L3104.39 354.913ZM3086.87 373.194L3086.25 372.411L3086.24 372.416L3086.87 373.194ZM3060.59 387.477L3060.92 388.422L3060.93 388.418L3060.59 387.477ZM3024.98 391.809C3009.48 391.809 2995.58 389.287 2983.28 384.266L2982.52 386.117C2995.1 391.252 3009.26 393.809 3024.98 393.809V391.809ZM2983.28 384.266C2970.95 379.236 2960.47 372.265 2951.81 363.357L2950.38 364.751C2959.24 373.87 2969.96 380.991 2982.52 386.117L2983.28 384.266ZM2951.82 363.367C2943.28 354.323 2936.68 343.833 2932.03 331.889L2930.17 332.615C2934.91 344.792 2941.64 355.503 2950.37 364.74L2951.82 363.367ZM2932.04 331.901C2927.51 319.834 2925.25 306.877 2925.25 293.023H2923.25C2923.25 307.099 2925.55 320.295 2930.16 332.603L2932.04 331.901ZM2925.25 293.023V285.406H2923.25V293.023H2925.25ZM2925.25 285.406C2925.25 269.633 2927.52 255.339 2932.04 242.512L2930.16 241.846C2925.54 254.917 2923.25 269.441 2923.25 285.406H2925.25ZM2932.04 242.509C2936.58 229.544 2942.99 218.426 2951.27 209.138L2949.78 207.807C2941.3 217.309 2934.77 228.661 2930.16 241.849L2932.04 242.509ZM2951.27 209.138C2959.55 199.853 2969.46 192.702 2981.01 187.681L2980.21 185.847C2968.4 190.982 2958.25 198.303 2949.78 207.807L2951.27 209.138ZM2981.01 187.681C2992.55 182.663 3005.3 180.146 3019.27 180.146V178.146C3005.06 178.146 2992.03 180.708 2980.21 185.847L2981.01 187.681ZM3019.27 180.146C3033.76 180.146 3046.5 182.603 3057.52 187.487L3058.33 185.659C3047.01 180.641 3033.98 178.146 3019.27 178.146V180.146ZM3057.53 187.491C3068.57 192.257 3077.77 199.022 3085.16 207.784L3086.68 206.495C3079.09 197.484 3069.63 190.538 3058.32 185.655L3057.53 187.491ZM3085.16 207.784C3092.55 216.556 3098.14 227.097 3101.91 239.425L3103.82 238.839C3099.98 226.284 3094.27 215.497 3086.68 206.495L3085.16 207.784ZM3101.91 239.427C3105.69 251.632 3107.58 265.178 3107.58 280.074H3109.58C3109.58 265.009 3107.67 251.261 3103.82 238.836L3101.91 239.427ZM3107.58 280.074V301.212H3109.58V280.074H3107.58ZM3108.58 300.212H2947.1V302.212H3108.58V300.212ZM2948.1 301.212V266.554H2946.1V301.212H2948.1ZM2947.1 267.554H3059.07V265.554H2947.1V267.554ZM3060.07 266.554V262.745H3058.07V266.554H3060.07ZM3060.07 262.713C3059.81 254.606 3058.27 247.184 3055.42 240.456L3053.58 241.235C3056.32 247.711 3057.82 254.888 3058.07 262.777L3060.07 262.713ZM3055.42 240.462C3052.56 233.559 3048.12 228.069 3042.11 224.02L3040.99 225.679C3046.66 229.501 3050.85 234.675 3053.58 241.229L3055.42 240.462ZM3042.12 224.029C3036.07 219.819 3028.3 217.756 3018.89 217.756V219.756C3028.01 219.756 3035.35 221.755 3040.98 225.671L3042.12 224.029ZM3018.89 217.756C3011.25 217.756 3004.53 219.441 2998.77 222.846L2999.78 224.568C3005.19 221.372 3011.55 219.756 3018.89 219.756V217.756ZM2998.77 222.843C2993.16 226.108 2988.47 230.802 2984.71 236.893L2986.41 237.943C2990.02 232.101 2994.48 227.654 2999.78 224.572L2998.77 222.843ZM2984.71 236.898C2981.09 242.85 2978.38 249.941 2976.59 258.152L2978.54 258.579C2980.3 250.539 2982.93 243.665 2986.42 237.938L2984.71 236.898ZM2976.59 258.152C2974.79 266.359 2973.9 275.445 2973.9 285.406H2975.9C2975.9 275.563 2976.78 266.622 2978.54 258.579L2976.59 258.152ZM2973.9 285.406V293.023H2975.9V285.406H2973.9ZM2973.9 293.023C2973.9 301.745 2975.05 309.844 2977.37 317.314L2979.28 316.721C2977.03 309.465 2975.9 301.568 2975.9 293.023H2973.9ZM2977.38 317.329C2979.83 324.802 2983.38 331.328 2988.03 336.893L2989.57 335.609C2985.09 330.256 2981.65 323.959 2979.28 316.706L2977.38 317.329ZM2988.05 336.912C2992.84 342.347 2998.54 346.619 3005.13 349.724L3005.98 347.915C2999.63 344.925 2994.16 340.819 2989.55 335.59L2988.05 336.912ZM3005.15 349.734C3011.9 352.718 3019.53 354.199 3028.03 354.199V352.199C3019.77 352.199 3012.42 350.76 3005.96 347.905L3005.15 349.734ZM3028.03 354.199C3038.7 354.199 3048.37 352.142 3057.02 348.008L3056.16 346.203C3047.81 350.194 3038.43 352.199 3028.03 352.199V354.199ZM3057.03 348.005C3065.81 343.744 3073.42 337.486 3079.85 329.249L3078.28 328.018C3072.02 336.032 3064.64 342.088 3056.16 346.206L3057.03 348.005ZM3078.34 329.328L3103.67 355.607L3105.11 354.219L3079.78 327.94L3078.34 329.328ZM3103.56 354.351C3099.32 360.598 3093.55 366.62 3086.25 372.411L3087.49 373.978C3094.92 368.089 3100.83 361.923 3105.22 355.475L3103.56 354.351ZM3086.24 372.416C3079.11 378.175 3070.45 382.885 3060.26 386.535L3060.93 388.418C3071.3 384.705 3080.16 379.894 3087.5 373.973L3086.24 372.416ZM3060.27 386.531C3050.11 390.042 3038.35 391.809 3024.98 391.809V393.809C3038.53 393.809 3050.51 392.02 3060.92 388.422L3060.27 386.531Z" fill="#333333" mask="url(#path-3-outside-1_1188_8420)"/>
<defs>
<filter id="filter0_dd_1188_8420" x="0" y="-0.00195312" width="496.004" height="496.004" filterUnits="userSpaceOnUse" color-interpolation-filters="sRGB">
<feFlood flood-opacity="0" result="BackgroundImageFix"/>
<feColorMatrix in="SourceAlpha" type="matrix" values="0 0 0 0 0 0 0 0 0 0 0 0 0 0 0 0 0 0 127 0" result="hardAlpha"/>
<feOffset dy="4"/>
<feGaussianBlur stdDeviation="2"/>
<feComposite in2="hardAlpha" operator="out"/>
<feColorMatrix type="matrix" values="0 0 0 0 0 0 0 0 0 0 0 0 0 0 0 0 0 0 0.25 0"/>
<feBlend mode="normal" in2="BackgroundImageFix" result="effect1_dropShadow_1188_8420"/>
<feColorMatrix in="SourceAlpha" type="matrix" values="0 0 0 0 0 0 0 0 0 0 0 0 0 0 0 0 0 0 127 0" result="hardAlpha"/>
<feOffset dy="4"/>
<feGaussianBlur stdDeviation="2"/>
<feComposite in2="hardAlpha" operator="out"/>
<feColorMatrix type="matrix" values="0 0 0 0 0 0 0 0 0 0 0 0 0 0 0 0 0 0 0.25 0"/>
<feBlend mode="normal" in2="effect1_dropShadow_1188_8420" result="effect2_dropShadow_1188_8420"/>
<feBlend mode="normal" in="SourceGraphic" in2="effect2_dropShadow_1188_8420" result="shape"/>
</filter>
</defs>
</svg>
